<?xml version="1.0" standalone="no"?>
<!DOCTYPE svg PUBLIC "-//W3C//DTD SVG 20010904//EN"
 "http://www.w3.org/TR/2001/REC-SVG-20010904/DTD/svg10.dtd">
<svg version="1.0" xmlns="http://www.w3.org/2000/svg"
 width="186.000000pt" height="327.000000pt" viewBox="0 0 186.000000 327.000000"
 preserveAspectRatio="xMidYMid meet">
<metadata>
Created by potrace 1.15, written by Peter Selinger 2001-2017
</metadata>
<g transform="translate(0.000000,327.000000) scale(0.100000,-0.100000)"
fill="#000000" stroke="none">
<path d="M787 3230 c-425 -77 -740 -426 -764 -846 -10 -169 21 -313 100 -470
122 -243 367 -426 637 -478 l65 -12 5 -700 5 -699 95 0 95 0 5 700 5 700 48 7
c252 36 504 212 638 446 166 290 157 661 -23 939 -123 189 -304 324 -525 389
-69 20 -116 27 -213 29 -69 2 -147 0 -173 -5z"/>
</g>
</svg>
